<svg style="fill:#fff" xmlns="http://www.w3.org/2000/svg" version="1.1" viewBox="124 434 832 212">
<defs>
    <style>
      .st0 {
        fill: #fff;
      }

      .st1 {
        fill: #fff;
      }

      .st2 {
        fill: #fff;
      }

      .st3 {
        fill: #fff;
      }

      .st4 {
        fill: #fff;
      }

      .st5 {
        fill: #fff;
      }

      .st6 {
        fill: #fff;
      }

      .st7 {
        fill: #fff;
      }

      .st8 {
        fill: #fff;
      }

      .st9 {
        fill: #fff;
      }

      .st10 {
        fill: #fff;
      }

      .st11 {
        fill: #fff;
      }

      .st12 {
        fill: #fff;
      }

      .st13 {
        fill: #fff;
      }

      .st14 {
        fill: #fff;
      }

      .st15 {
        fill: #fff;
      }
    </style>
    <linearGradient id="linear-gradient" x1="188.36" y1="606.31" x2="362.38" y2="606.31" gradientUnits="userSpaceOnUse">
      <stop offset="0" stop-color="#07162f"/>
      <stop offset=".16" stop-color="#043a51"/>
      <stop offset=".38" stop-color="#096574"/>
      <stop offset=".57" stop-color="#17b4a5"/>
      <stop offset=".75" stop-color="#387bb6"/>
      <stop offset=".89" stop-color="#5965ae"/>
      <stop offset=".99" stop-color="#7768ae"/>
    </linearGradient>
    <linearGradient id="linear-gradient1" x1="190.83" y1="472.93" x2="365.1" y2="472.93" gradientUnits="userSpaceOnUse">
      <stop offset="0" stop-color="#07162f"/>
      <stop offset=".25" stop-color="#26255c"/>
      <stop offset=".55" stop-color="#463a96"/>
      <stop offset=".81" stop-color="#6253a3"/>
      <stop offset="1" stop-color="#7768ae"/>
    </linearGradient>
  </defs>
  <g>
    <circle class="st9" cx="155.1" cy="546.13" r="4.5"/>
    <g>
      <g>
        <path class="st14" d="M358.98,596.44c5.28,3.2,3.71,10.18,0,13.9l-8.06,8.11c-36.15,31.66-89.26,33.68-127.89,5.14-15.15-11.2-27.51-26.23-34.37-44.05-1.31-3.41,1.73-6.25,4.32-7.15l9.03-3.14c3.86-1.34,5.91,2.16,7.2,4.96,15.76,34.34,53.27,52.69,90.22,44.79,16.03-3.43,30.69-11.81,41.85-23.97,2.87-3.43,6.42-5.22,10.21-3.1l7.48,4.53Z"/>
        <path class="st3" d="M310.85,463.16c-27.34-9.79-57.7-2.41-79.4,16.15-8.94,7.64-15.57,17-20.71,27.56-1.18,2.43-5.04,3.19-7.32,2.34l-9.7-3.58c-2.93-1.08-3.49-4.6-2.3-7.2,16.08-35.01,49.84-58.69,88.38-61.77,17.33-1.38,34.37,1.7,49.99,9.34,12.69,6.2,23.98,14.42,33.07,25.13,3.14,3.7,3.16,9.85-1.07,12.39-2.96,1.77-6.57,3.12-9.57,4.3-4.25,1.69-6.8-.78-9.3-3.52-8.78-9.64-19.79-16.74-32.06-21.13Z"/>
        <circle class="st0" cx="282.07" cy="539.38" r="25.64"/>
      </g>
      <g>
        <circle class="st2" cx="169.24" cy="512.26" r="3.97"/>
        <g>
          <circle class="st1" cx="130.28" cy="560.56" r="4.33"/>
          <circle class="st9" cx="130.48" cy="517.46" r="4.31"/>
          <circle class="st13" cx="203.15" cy="538.79" r="4.17"/>
          <circle class="st12" cx="225.74" cy="538.49" r="4.13"/>
          <circle class="st2" cx="152.66" cy="488.56" r="4.11"/>
          <circle class="st4" cx="179.5" cy="538.45" r="4.13"/>
          <circle class="st10" cx="152.61" cy="589.6" r="4.1"/>
          <circle class="st10" cx="169.25" cy="566.01" r="4.12"/>
          <circle class="st8" cx="198.69" cy="558.45" r="3.92"/>
          <circle class="st15" cx="198.76" cy="520.13" r="3.74"/>
          <path class="st5" d="M243.22,539.57l-3.79,2.09c-1.7.72-2.84.02-3.3-.58s-.85-1.69-.82-2.53c.04-1.39.78-2.68,1.88-3.09,1.39-.51,1.7-.3,3.12.49l3.02,1.8c1.13.72.67,1.39-.1,1.82Z"/>
          <circle class="st10" cx="181.96" cy="549.91" r="3.04"/>
          <circle class="st10" cx="186.22" cy="527.61" r="2.92"/>
          <circle class="st8" cx="216.71" cy="549.05" r="2.8"/>
          <circle class="st6" cx="216.41" cy="528.43" r="2.82"/>
        </g>
      </g>
    </g>
  </g>
  <g>
    <g>
      <path d="M759.17,547.41l-11.25-15.43-10.54.05-.02,15.31h-5.2s.04-40.53.04-40.53l18.42-.05c5.05-.01,9.44,2.45,12.04,6.68,1.63,3.57,1.87,7.72.15,11.27-1.72,3.56-4.83,5.4-9.04,6.42l11.85,16.24-6.45.05ZM751.47,526.87c4.59-.09,7.18-4.04,7.02-7.87-.16-3.87-3.27-7.08-7.61-7.1l-13.52-.06.03,15.3,14.08-.27Z"/>
      <polygon points="880.23 525.22 880.37 530.46 859.13 530.55 859.09 547.31 853.75 547.33 853.76 506.7 882.71 506.7 882.72 511.82 859.13 511.87 859.11 525.27 880.23 525.22"/>
      <polygon class="st11" points="688.57 547.4 674.75 514.16 661.24 547.33 655.37 547.29 672.04 506.95 677.54 507.01 694.44 547.35 688.57 547.4"/>
      <polygon points="954.04 506.95 937.8 531.06 937.81 547.3 932.51 547.35 932.53 531.09 916.24 506.78 922.67 506.73 935.12 525.8 947.96 506.79 954.04 506.95"/>
      <rect x="787.61" y="524.34" width="40.73" height="5.28" transform="translate(280.6377 1334.7201) rotate(-89.9749)"/>
      <path d="M550.9,526.98c0,11.49-9.32,20.81-20.81,20.81s-20.81-9.32-20.81-20.81,9.32-20.81,20.81-20.81,20.81,9.32,20.81,20.81ZM545.65,527.05c0-8.59-6.96-15.55-15.55-15.55s-15.55,6.96-15.55,15.55,6.96,15.55,15.55,15.55,15.55-6.96,15.55-15.55Z"/>
      <path d="M446.64,539.19c6.66,6.11,16.33,4.29,21.97-2.06l3.72,3.3c-6.73,8.31-19.25,10.04-28.08,3.73-6.47-4.63-9.04-12.4-8.1-20.09,1.29-10.65,9.96-18.31,20.71-18.12,5.96.11,11.36,2.34,15.35,6.91l-3.84,3.8c-5.9-6.7-16.42-7.75-22.7-.84s-5.73,17.23.96,23.37Z"/>
      <polygon points="624.63 506.82 607.74 547.25 603.02 547.35 586.1 506.9 591.96 506.79 605.41 539.65 618.84 506.82 624.63 506.82"/>
    </g>
    <g>
      <path class="st7" d="M437.51,573.86v-13.99h8.71v1.84h-6.56v4.5h5.94v1.83h-5.94v5.82h-2.14Z"/>
      <path class="st7" d="M471.34,559.87v13.99h-2.14v-13.99h2.14Z"/>
      <path class="st7" d="M494.79,573.86v-13.99h2.47l5.27,8.33c.18.28.37.6.59.99.22.38.45.81.69,1.29s.48,1,.72,1.56h-.26c-.06-.53-.1-1.06-.13-1.58-.03-.52-.05-1.01-.06-1.47-.01-.46-.02-.84-.02-1.16v-7.96h2.17v13.99h-2.48l-4.72-7.45c-.25-.41-.5-.82-.74-1.23-.24-.41-.51-.89-.8-1.43-.29-.54-.65-1.2-1.07-1.98h.34c.03.69.06,1.33.09,1.93.03.6.05,1.13.07,1.59.02.46.02.83.02,1.1v7.47h-2.17Z"/>
      <path class="st7" d="M528.62,573.86l4.98-13.99h2.63l5.07,13.99h-2.32l-2.72-7.79c-.21-.63-.45-1.38-.7-2.24-.25-.86-.55-1.89-.88-3.09h.43c-.32,1.21-.61,2.26-.86,3.12-.25.87-.48,1.6-.67,2.2l-2.64,7.79h-2.32ZM531.31,570.17v-1.78h7.28v1.78h-7.28Z"/>
      <path class="st7" d="M563.68,573.86v-13.99h2.47l5.27,8.33c.18.28.37.6.59.99.22.38.45.81.69,1.29s.48,1,.72,1.56h-.26c-.06-.53-.1-1.06-.13-1.58-.03-.52-.05-1.01-.06-1.47-.01-.46-.02-.84-.02-1.16v-7.96h2.17v13.99h-2.48l-4.72-7.45c-.25-.41-.5-.82-.74-1.23-.24-.41-.51-.89-.8-1.43-.29-.54-.65-1.2-1.07-1.98h.34c.03.69.06,1.33.09,1.93.03.6.05,1.13.07,1.59.02.46.02.83.02,1.1v7.47h-2.17Z"/>
      <path class="st7" d="M604.39,574.05c-1.21,0-2.29-.29-3.24-.86s-1.7-1.4-2.24-2.47c-.54-1.07-.82-2.36-.82-3.85s.27-2.78.82-3.86c.54-1.07,1.29-1.9,2.24-2.47.95-.58,2.03-.86,3.24-.86.74,0,1.43.11,2.08.32.65.21,1.23.52,1.74.93.51.41.93.9,1.27,1.48.34.58.56,1.24.68,1.98h-2.15c-.09-.44-.24-.84-.47-1.18-.22-.34-.49-.63-.81-.87-.32-.24-.68-.42-1.07-.54-.39-.12-.81-.18-1.25-.18-.8,0-1.52.2-2.16.61-.64.4-1.14,1-1.5,1.78s-.54,1.73-.54,2.86.18,2.08.55,2.86.87,1.37,1.5,1.77c.63.4,1.35.6,2.14.6.44,0,.85-.06,1.24-.18.39-.12.75-.3,1.07-.54.32-.23.59-.52.82-.87.22-.34.38-.74.47-1.17h2.16c-.11.69-.32,1.32-.65,1.89s-.74,1.07-1.25,1.5c-.51.43-1.09.75-1.74.98-.65.23-1.37.34-2.14.34Z"/>
      <path class="st7" d="M635.17,559.87v13.99h-2.14v-13.99h2.14Z"/>
      <path class="st7" d="M657.55,573.86l4.98-13.99h2.63l5.07,13.99h-2.32l-2.72-7.79c-.21-.63-.45-1.38-.7-2.24-.25-.86-.55-1.89-.88-3.09h.43c-.32,1.21-.61,2.26-.86,3.12-.25.87-.48,1.6-.67,2.2l-2.64,7.79h-2.32ZM660.25,570.17v-1.78h7.28v1.78h-7.28Z"/>
      <path class="st7" d="M692.61,573.86v-13.99h2.14v12.15h6.34v1.84h-8.48Z"/>
      <path class="st7" d="M755.13,574.05c-1.21,0-2.29-.29-3.24-.86s-1.7-1.4-2.24-2.47c-.54-1.07-.82-2.36-.82-3.85s.27-2.78.82-3.86c.54-1.07,1.29-1.9,2.24-2.47.95-.58,2.03-.86,3.24-.86.74,0,1.43.11,2.08.32.65.21,1.23.52,1.74.93.51.41.93.9,1.27,1.48.34.58.56,1.24.68,1.98h-2.15c-.09-.44-.24-.84-.47-1.18-.22-.34-.49-.63-.81-.87-.32-.24-.68-.42-1.07-.54-.39-.12-.81-.18-1.25-.18-.8,0-1.52.2-2.16.61-.64.4-1.14,1-1.5,1.78s-.54,1.73-.54,2.86.18,2.08.55,2.86.87,1.37,1.5,1.77c.63.4,1.35.6,2.14.6.44,0,.85-.06,1.24-.18.39-.12.75-.3,1.07-.54.32-.23.59-.52.82-.87.22-.34.38-.74.47-1.17h2.16c-.11.69-.32,1.32-.65,1.89s-.74,1.07-1.25,1.5c-.51.43-1.09.75-1.74.98-.65.23-1.37.34-2.14.34Z"/>
      <path class="st7" d="M783.77,573.86v-13.99h2.14v12.15h6.34v1.84h-8.48Z"/>
      <path class="st7" d="M813.92,573.86l4.98-13.99h2.63l5.07,13.99h-2.32l-2.72-7.79c-.21-.63-.45-1.38-.7-2.24-.25-.86-.55-1.89-.88-3.09h.43c-.32,1.21-.61,2.26-.86,3.12-.25.87-.48,1.6-.67,2.2l-2.64,7.79h-2.32ZM816.62,570.17v-1.78h7.28v1.78h-7.28Z"/>
      <path class="st7" d="M848.98,573.86v-13.99h5.02c1.08,0,1.98.19,2.7.56.72.37,1.26.89,1.62,1.55.36.66.54,1.42.54,2.28s-.18,1.62-.54,2.27c-.36.65-.9,1.15-1.62,1.51s-1.62.54-2.7.54h-3.77v-1.83h3.56c.69,0,1.24-.1,1.67-.3.42-.2.73-.48.93-.85.2-.37.3-.81.3-1.33s-.1-.98-.3-1.36c-.2-.38-.51-.68-.94-.89-.43-.21-.99-.31-1.68-.31h-2.63v12.16h-2.14ZM856.94,573.86l-3.39-6.32h2.38l3.45,6.32h-2.43Z"/>
      <path class="st7" d="M883.94,559.87v13.99h-2.14v-13.99h2.14Z"/>
      <path class="st7" d="M906.68,561.71v-1.84h10.87v1.84h-4.35v12.15h-2.15v-12.15h-4.37Z"/>
      <path class="st7" d="M944.69,573.86v-5.57l-5.16-8.42h2.5l2.63,4.46c.29.49.55.96.77,1.41.22.45.45,1.01.69,1.67h-.69c.24-.68.47-1.24.69-1.7.22-.45.47-.92.75-1.39l2.6-4.46h2.49l-5.14,8.42v5.57h-2.14Z"/>
    </g>
  </g>
</svg>