<svg xmlns="http://www.w3.org/2000/svg" version="1.1" viewBox="0 0 620.77 538.22">
<defs>
    <style>
      .st0 {
        fill: #07162f;
      }

      .st1 {
        fill: #6356a5;
      }

      .st2 {
        fill: #1dacb1;
      }

      .st3 {
        fill: url(#linear-gradient1);
      }

      .st4 {
        fill: #5f4ea0;
      }

      .st5 {
        fill: #6d61aa;
      }

      .st6 {
        fill: #7062ab;
      }

      .st7 {
        fill: #6965ad;
      }

      .st8 {
        fill: #5c55a4;
      }

      .st9 {
        fill: #0eb1b1;
      }

      .st10 {
        fill: #342f8b;
      }

      .st11 {
        fill: #5d4fa1;
      }

      .st12 {
        fill: url(#linear-gradient);
      }

      .st13 {
        fill: #5c59a7;
      }
    </style>
    <linearGradient id="linear-gradient" x1="161.99" y1="441.23" x2="613.7" y2="441.23" gradientUnits="userSpaceOnUse">
      <stop offset="0" stop-color="#07162f"/>
      <stop offset=".16" stop-color="#043a51"/>
      <stop offset=".38" stop-color="#096574"/>
      <stop offset=".57" stop-color="#17b4a5"/>
      <stop offset=".75" stop-color="#387bb6"/>
      <stop offset=".89" stop-color="#5965ae"/>
      <stop offset=".99" stop-color="#7768ae"/>
    </linearGradient>
    <linearGradient id="linear-gradient1" x1="168.4" y1="95.01" x2="620.77" y2="95.01" gradientUnits="userSpaceOnUse">
      <stop offset="0" stop-color="#07162f"/>
      <stop offset=".25" stop-color="#26255c"/>
      <stop offset=".55" stop-color="#463a96"/>
      <stop offset=".81" stop-color="#6253a3"/>
      <stop offset="1" stop-color="#7768ae"/>
    </linearGradient>
  </defs>
  <circle class="st8" cx="75.65" cy="285.01" r="11.69"/>
  <g>
    <g>
      <path class="st12" d="M604.88,415.62c13.71,8.3,9.62,26.42.03,36.07l-20.92,21.04c-93.84,82.18-231.71,87.44-331.97,13.33-39.32-29.06-71.42-68.1-89.21-114.35-3.41-8.86,4.5-16.22,11.22-18.56l23.43-8.15c10.01-3.48,15.34,5.61,18.68,12.88,40.91,89.15,138.28,136.78,234.18,116.26,41.62-8.9,79.66-30.66,108.63-62.22,7.45-8.9,16.67-13.55,26.5-8.05l19.42,11.75Z"/>
      <path class="st3" d="M479.96,69.64c-70.97-25.41-149.77-6.26-206.12,41.91-23.21,19.84-40.42,44.12-53.75,71.53-3.07,6.31-13.08,8.28-19.01,6.08l-25.19-9.3c-7.6-2.81-9.06-11.94-5.96-18.68C211.66,70.3,299.29,8.83,399.35.83c44.97-3.59,89.22,4.42,129.77,24.23,32.93,16.09,62.25,37.43,85.83,65.23,8.14,9.59,8.2,25.57-2.79,32.16-7.68,4.61-17.06,8.09-24.85,11.17-11.04,4.37-17.66-2.03-24.14-9.15-22.78-25.02-51.38-43.45-83.21-54.85Z"/>
      <circle class="st0" cx="405.25" cy="267.51" r="66.55"/>
    </g>
    <g>
      <circle class="st2" cx="112.37" cy="197.09" r="10.32"/>
      <g>
        <circle class="st1" cx="11.24" cy="322.49" r="11.24"/>
        <circle class="st8" cx="11.73" cy="210.61" r="11.19"/>
        <circle class="st11" cx="200.39" cy="265.96" r="10.83"/>
        <circle class="st10" cx="259.01" cy="265.18" r="10.72"/>
        <circle class="st2" cx="69.32" cy="135.59" r="10.67"/>
        <circle class="st4" cx="138.98" cy="265.08" r="10.71"/>
        <circle class="st9" cx="69.2" cy="397.85" r="10.65"/>
        <circle class="st9" cx="112.38" cy="336.63" r="10.69"/>
        <circle class="st7" cx="188.79" cy="316.99" r="10.17"/>
        <circle class="st13" cx="189" cy="217.53" r="9.7"/>
        <path class="st5" d="M304.38,267.99l-9.83,5.42c-4.41,1.86-7.38.06-8.56-1.5-1.17-1.55-2.19-4.37-2.14-6.57.1-3.62,2.03-6.97,4.87-8.01,3.62-1.33,4.42-.79,8.09,1.28l7.83,4.66c2.95,1.88,1.74,3.61-.27,4.72Z"/>
        <circle class="st9" cx="145.36" cy="294.84" r="7.89"/>
        <circle class="st9" cx="156.43" cy="236.96" r="7.59"/>
        <circle class="st7" cx="235.59" cy="292.59" r="7.27"/>
        <circle class="st6" cx="234.79" cy="239.07" r="7.32"/>
      </g>
    </g>
  </g>
</svg>